<svg version="1.2" xmlns="http://www.w3.org/2000/svg" viewBox="0 0 43 43" width="43" height="43">
	<title>Logo-svg</title>
	<style>
		.s0 { fill: #8047f8 } 
	</style>
	<g id="Logo">
		<path id="Layer" class="s0" d="m33.2 7.1c-0.3-0.5-0.8-0.5-1.3-0.5q-0.1 0-0.2 0-0.1 0-0.2 0c-0.2 0-0.4 0-0.6-0.2-0.1-0.2-0.1-0.6-0.1-1q0-0.1 0-0.3c0-0.8 0-1.6-0.4-1.9-0.2-0.2-0.9-0.2-1.5-0.1q-0.3 0-0.6 0h-13.5q-0.4 0-0.8-0.1c-0.6 0-1.1 0-1.5 0.1-0.5 0.2-0.6 1.1-0.6 2.1 0 0.8-0.2 1.4-0.8 1.3-0.8-0.1-1.5-0.1-1.8 0.6-0.4 0.7-0.3 1.6-0.2 3q0 0.3 0.1 0.7h24.2q0-0.3 0.1-0.5c0.1-1.3 0.2-2.5-0.3-3.2z"/>
		<path id="Layer" fill-rule="evenodd" class="s0" d="m11.1 12.2q0.5 7.7 1.1 15.4 0.3 4.2 0.6 8.4h0.8c0 0.4 0.1 0.9 0.2 1.5 0.1 1.2 0.2 2.4 0.4 3.2 0.8-0.3 6.3-2.6 6.3-11.9q0 0 0-0.1h-1.4q-0.1 0-0.1 0-0.1-0.1-0.2-0.2-0.2-0.5-0.3-1c-0.8 0.5-1.4 1.2-1.8 2-0.3-0.9-0.4-1.8-0.1-2.7 0.3-0.8 0.8-1.6 1.6-2.1 0-2.7 1-5.3 2.9-7.3q0.1-0.1 0.2-0.1 0 0 0.1 0 0.1 0 0.1 0.1c1.8 2 2.9 4.6 2.8 7.4 0.8 0.4 1.4 1.2 1.7 2.1 0.2 0.8 0.2 1.8-0.2 2.6-0.4-0.8-1-1.5-1.8-1.9q-0.1 0.5-0.3 0.9 0 0.2-0.2 0.2h-1.4q0 0.1 0 0.1 0 0 0 0c0 9.6 5.8 11.7 6.3 11.9h0.2c0-0.7 0.1-1.8 0.3-2.8 0.1-0.7 0.2-1.4 0.2-1.9h0.8q0.4-5.3 0.8-10.5 0.5-6.8 0.9-13.5h-20.5c0 0 0 0.1 0 0.2zm10.2 5.1z"/>
	</g>
</svg>